<!-- icon666.com - MILLIONS vector ICONS FREE --><svg id="Capa_1" enable-background="new 0 0 512 512" viewBox="0 0 512 512" xmlns="http://www.w3.org/2000/svg"><g><path d="m404.972 497h15v15h-15z"></path><path d="m460.68 273.103c-3.278 0-6.395.693-9.221 1.932-3.051-9.154-11.694-15.775-21.86-15.775-2.87 0-5.617.532-8.153 1.495-1.15-11.636-10.992-20.757-22.927-20.757-.001 0 0 0-.001 0-6.136 0-11.917 2.401-16.277 6.761-3.815 3.815-6.131 8.718-6.65 13.995-2.536-.963-5.283-1.495-8.152-1.495-12.704 0-23.04 10.336-23.04 23.041v69.095c-2.504-.936-5.214-1.447-8.041-1.447h-23.041v81.193l43.423 39.864v40.995h33.231v-15h-18.231v-32.586l-43.423-39.864v-59.601h8.041c4.433 0 8.04 3.607 8.04 8.04v34.666h15v-125.354c0-4.434 3.607-8.041 8.04-8.041 4.434 0 8.041 3.607 8.041 8.041v77.067h15v-96.33c0-2.13.841-4.145 2.368-5.671 1.527-1.527 3.541-2.368 5.671-2.368 4.434 0 8.041 3.607 8.041 8.04v96.33h15v-77.075c.004-4.43 3.609-8.033 8.04-8.033 4.434 0 8.041 3.607 8.041 8.041v82.8h15v-68.957c0-4.434 3.607-8.041 8.04-8.041 4.434 0 8.041 3.607 8.041 8.041v143.613l-15.518 25.876v31.366h-18.231v15h33.231v-42.214l15.518-25.877v-147.765c0-12.705-10.336-23.041-23.041-23.041z"></path><path d="m175.643 295.603c-3.278 0-6.395.693-9.221 1.932-3.051-9.154-11.694-15.775-21.859-15.775-4.929 0-9.497 1.561-13.248 4.207-4.229-5.166-10.651-8.469-17.832-8.469-.001 0 0 0-.001 0-6.136 0-11.917 2.401-16.277 6.761-.553.553-1.073 1.129-1.562 1.725-3.858-2.733-8.435-4.224-13.241-4.224-12.705 0-23.041 10.336-23.041 23.041v15.149h-8.582c-12.406 0-22.5 10.093-22.5 22.5v58.693l43.423 39.864v70.994h111.462v-72.214l15.518-25.877v-95.266c.001-12.706-10.335-23.041-23.039-23.041zm8.04 114.153-15.518 25.878v61.366h-81.462v-62.586l-43.424-39.864v-52.102c0-4.135 3.364-7.5 7.5-7.5h8.582v42.706h15v-72.854c0-4.434 3.607-8.041 8.041-8.041 2.13 0 4.145.841 5.672 2.368s2.368 3.542 2.368 5.672v24.568h15v-28.831c0-2.13.841-4.144 2.368-5.671s3.542-2.368 5.672-2.368c4.434 0 8.041 3.607 8.041 8.04v28.831h15v-24.568c0-4.434 3.607-8.041 8.04-8.041s8.04 3.607 8.04 8.041v30.301h15v-16.462c.002-4.432 3.608-8.036 8.04-8.036 4.433 0 8.04 3.607 8.04 8.041z"></path><path d="m292.872 184.369c7.98-2.056 13.799-7.598 16.125-14.877 2.81 1.223 5.908 1.906 9.164 1.906 12.705 0 23.041-10.336 23.041-23.041v-81.043l-23.018-25.877v-41.437h-118.962v41.89l-28.423 39.865v22.599h15v-17.799l28.423-39.865v-31.69h88.962v32.143l23.018 25.877v75.337c0 4.434-3.607 8.041-8.041 8.041-4.431 0-8.037-3.604-8.04-8.035v-8.963h-15v22.801c0 5.505-4.189 7.178-5.991 7.643-3.08.792-6.997.125-9.232-3.008l-2.878-13.813-14.685 3.059 19.165 91.999c.955 4.582-1.584 8.995-5.779 10.045-2.174.545-4.523.167-6.442-1.036-1.708-1.071-2.86-2.675-3.244-4.518l-19.007-91.241v-14.227h-15v14.411l-14.325 90.697c-.453 2.865-2.015 4.505-3.246 5.376-1.76 1.246-4 1.768-5.989 1.402-3.754-.692-7.377-3.885-6.29-10.769l14.701-93.079v-35.795h-15v27.707h-8.582c-4.135 0-7.5-3.364-7.5-7.5v-20.199h-15v20.199c0 12.406 10.093 22.5 22.5 22.5h7.304l-13.24 83.828c-2.465 15.61 7.383 25.831 18.386 27.86 1.324.244 2.665.364 4.007.364 4.712 0 9.423-1.482 13.368-4.273 5.07-3.588 8.408-9.015 9.397-15.28l8.024-50.801 10.808 51.88c1.223 5.875 4.761 10.907 9.96 14.167 3.744 2.348 8.083 3.567 12.444 3.567 1.881 0 3.767-.227 5.61-.688 12.035-3.013 19.423-15.161 16.82-27.655l-12.503-60.017c.944.113 1.901.177 2.868.177 2.078-.003 4.2-.267 6.322-.814z"></path><path d="m104.934 362.001h15v15h-15z"></path><path d="m134.934 362.001h15v15h-15z"></path><path d="m419.972 392.001h15v15h-15z"></path><path d="m389.972 392.001h15v15h-15z"></path><path d="m236.203 89.999h15v15h-15z"></path><path d="m266.203 89.999h15v15h-15z"></path></g></svg>